inDegrees=no
num_controls=7
num_derivatives=13
num_iterations=76
num_multipliers=7
num_parameters=0
num_slacks=7
num_states=26
objective=0.448632
objective_accelerations=0.008702
objective_balance=0.000654
objective_effort=0.005906
objective_height=0.424086
objective_ligament=0.009285
solver_duration=1141.598142
status=Solve_Succeeded
success=true
DataType=double
version=3
OpenSimVersion=4.5
endheader
time	/jointset/ground_pelvis/pelvis_tilt/value	/jointset/ground_pelvis/pelvis_tx/value	/jointset/ground_pelvis/pelvis_ty/value	/jointset/hip_l/hip_flexion_l/value	/jointset/hip_l/hip_adduction_l/value	/jointset/hip_l/hip_rotation_l/value	/jointset/back/lumbar_extension/value	/jointset/patellofemoral_l/patellar_flexion_l/value	/jointset/knee_l/knee_flexion_l/value	/jointset/knee_l/knee_adduction_l/value	/jointset/knee_l/knee_rotation_l/value	/jointset/ankle_l/ankle_angle_l/value	/jointset/subtalar_l/subtalar_angle_l/value	/jointset/ground_pelvis/pelvis_tilt/speed	/jointset/ground_pelvis/pelvis_tx/speed	/jointset/ground_pelvis/pelvis_ty/speed	/jointset/hip_l/hip_flexion_l/speed	/jointset/hip_l/hip_adduction_l/speed	/jointset/hip_l/hip_rotation_l/speed	/jointset/back/lumbar_extension/speed	/jointset/patellofemoral_l/patellar_flexion_l/speed	/jointset/knee_l/knee_flexion_l/speed	/jointset/knee_l/knee_adduction_l/speed	/jointset/knee_l/knee_rotation_l/speed	/jointset/ankle_l/ankle_angle_l/speed	/jointset/subtalar_l/subtalar_angle_l/speed	/forceset/tau_hip_flexion_l	/forceset/tau_hip_adduction_l	/forceset/tau_hip_rotation_l	/forceset/tau_knee_flexion_l	/forceset/tau_ankle_angle_l	/forceset/tau_subtalar_angle_l	/forceset/tau_lumbar_extension	lambda_cid13_p0	lambda_cid13_p1	lambda_cid13_p2	lambda_cid13_p3	lambda_cid13_p4	lambda_cid13_p5	lambda_cid14_p0	/jointset/ground_pelvis/pelvis_tilt/accel	/jointset/ground_pelvis/pelvis_tx/accel	/jointset/ground_pelvis/pelvis_ty/accel	/jointset/hip_l/hip_flexion_l/accel	/jointset/hip_l/hip_adduction_l/accel	/jointset/hip_l/hip_rotation_l/accel	/jointset/back/lumbar_extension/accel	/jointset/patellofemoral_l/patellar_flexion_l/accel	/jointset/knee_l/knee_flexion_l/accel	/jointset/knee_l/knee_adduction_l/accel	/jointset/knee_l/knee_rotation_l/accel	/jointset/ankle_l/ankle_angle_l/accel	/jointset/subtalar_l/subtalar_angle_l/accel	gamma_cid13_p0	gamma_cid13_p1	gamma_cid13_p2	gamma_cid13_p3	gamma_cid13_p4	gamma_cid13_p5	gamma_cid14_p0
0	0.05798042993694728	0.102849432902982	0.9059956194025084	0.1266922784136757	-0.3421813292615158	-0.2525743334004055	-0.2144969558742783	0.2051545070141877	0.2051545070141877	-0.1163409696461196	-0.1735395775256788	0.09024313228550125	0.1097047306487126	0	0	0	0	0	0	0	0	0	0	0	0	0	0.08441669468908099	-0.07447493273360117	-0.009483579843276238	-0.2517387806033008	0.2242562117594208	-0.0418345688759808	-0.01110526122638316	43.45943681191008	13.34289518399906	-5.587744142024689	-50.27796045616736	-456.5786579189142	-80.9286858535818	-26.29493386496119	0.4450113527615355	1.305278172246124	-0.05937195554027685	-1.034139438675048	-0.08696929143835112	0.403804903926045	0.3850236926413437	1.962075093178044	1.962075093178044	0.4248456484482405	-0.07730120153996473	2.76773821648106	0.8032401531139765	3.392191945288704e-09	6.950398938276741e-08	-3.236156722671202e-08	7.69360786035609e-09	5.595186270542192e-08	9.82515735335841e-08	5.427064313518361e-09
0.01	0.05800378873701249	0.1029129463179886	0.9059928247515951	0.1266407581284304	-0.342185070949098	-0.2525531551567162	-0.2144777342510593	0.2052508196128858	0.2052508196128859	-0.1163191393667322	-0.1735418564777832	0.09037860979951048	0.1097445954680166	0.004761172647645065	0.01253175394780411	-0.0005513038843858691	-0.01023336080037861	-0.0007275466582184027	0.004233087651367267	0.003878442580713876	0.01916689172820104	0.01916689172820103	0.004375322434848759	-0.0004391339478649605	0.02683453074567781	0.007911845023037324	0.07919912196435948	-0.06144845319832171	-0.00863387912807978	-0.2405266055687099	0.2094284909450009	-0.04842072236669785	-0.007780349462924848	38.1941210795874	16.62329262321266	-5.537452845925132	-45.31382170603305	-456.6701319113465	-72.81135064596407	-26.29488169430909	0.5050818327444178	1.201486186743338	-0.05185446977618469	-1.007329641531488	-0.06252696422370693	0.4326820750479402	0.3943722313217845	1.879650925514924	1.879650925514923	0.4452694288519076	-0.02472649267241384	2.602166473699891	0.7759817408614277	3.074083182137648e-09	7.491456810534922e-08	-3.604410096024923e-08	6.645476979406588e-09	3.344175563034976e-08	9.056112557523736e-08	7.818956358048721e-09
0.02	0.05807744158594984	0.1030966497086123	0.9059847480888604	0.1264890251870189	-0.3421954640255045	-0.2524897217606521	-0.214418704663926	0.2055359320714407	0.2055359320714407	-0.1162532770854266	-0.1735480281696188	0.09077460381499422	0.1098617437503435	0.01005880977442719	0.02403799512343953	-0.001056402364309413	-0.02004253123324604	-0.001330277764841688	0.008451030474969439	0.007961592782842761	0.03775997197135371	0.0377599719713537	0.008806400383646072	-0.000778547946236007	0.0521033002949056	0.01545669260458734	0.07398154923963794	-0.04842197366304227	-0.007784178412883311	-0.229314430534119	0.1946007701305809	-0.05500687585741489	-0.00445543769946655	32.94055345422886	19.90965256403734	-5.497272268260355	-40.43506744418842	-456.5874326754851	-64.63890690136778	-26.29466094884373	0.5523042485889477	1.100175617812387	-0.05013087464781195	-0.9493013651728109	-0.06200618111932775	0.4007759383730261	0.4259652169243454	1.847312796168372	1.847312796168373	0.4359967512379508	-0.0573572116411819	2.454585977191055	0.7298406648165136	2.755974418986593e-09	8.032514682793103e-08	-3.972663469378644e-08	5.597346098457086e-09	1.093164855527761e-08	8.287067761689062e-08	1.021084840257908e-08
0.03	0.0582055812712692	0.103391674208274	0.9059717647463158	0.1262406888194181	-0.3422115426687918	-0.2523843071593317	-0.214318237732423	0.2060040037366962	0.2060040037366962	-0.1161433831945209	-0.1735571072991893	0.09141705464473145	0.1100527424807376	0.0155435930152167	0.03493433470409955	-0.001540452618930366	-0.0296219508350852	-0.001891150311073844	0.01262039881254341	0.01212111556225898	0.0557431167302696	0.05574311673026959	0.01312748002939703	-0.001016471902608466	0.07628348020481845	0.02270651061346686	0.07368801170191416	-0.04670354663577193	-0.007672954128806653	-0.2282002542322532	0.1924738291780164	-0.05578312712409549	-0.004329584977561917	32.18307030806907	20.32926749009393	-5.506897514894495	-39.67612010985251	-456.7231803562404	-63.62683852784356	-26.29422865347125	0.5427351724890592	1.079478727708724	-0.04756797663890085	-0.9618435436023058	-0.05398387883347501	0.4233013046052774	0.4093441151258721	1.757126611499411	1.75712661149941	0.4234355110551874	-0.003896614714650883	2.384228540560495	0.7170630239320817	2.876253114550504e-09	7.875072630104264e-08	-3.501922174569772e-08	5.424025339683849e-09	1.112644681084466e-08	7.673399872709749e-08	9.88249178274446e-09
0.04	0.05838780275112947	0.1037946852236454	0.9059539357260711	0.1258966419986163	-0.3422334012550331	-0.2522375420700043	-0.2141764959117907	0.20664856910869	0.20664856910869	-0.1159916241191954	-0.1735679429937395	0.09229820618210162	0.1103151415222222	0.02087516868260952	0.04563529826539613	-0.002025537904337964	-0.03918462187343784	-0.002486266355639127	0.01672112807634519	0.01621657060870112	0.07305871331903403	0.07305871331903403	0.01717943726760883	-0.001129860942157163	0.09984344182149507	0.02973675482268278	0.07339447416419036	-0.04498511960850157	-0.007561729844729989	-0.2270860779303876	0.190346888225452	-0.05655937839077609	-0.004203732255657287	31.4364110190392	20.75443106303462	-5.525909979459491	-38.99498418804978	-456.6977557853543	-62.56324733345709	-26.29352672246094	0.5216627339096074	1.061100413939696	-0.05033788080514083	-0.9459516524755063	-0.0688548807860038	0.3870481236185904	0.4131516703295287	1.713803162138083	1.713803162138082	0.3821722697301274	-0.0324502282765613	2.330542318543808	0.6859259048837918	3.005570726788951e-09	7.703228517107241e-08	-3.013882020623526e-08	5.268741903017338e-09	1.178938744436304e-08	7.062935631294463e-08	9.498047561582725e-09
0.05	0.05862254653073611	0.1043032973088123	0.9059312017703257	0.1254577757349871	-0.3422614234574162	-0.2520504728603982	-0.2139936655513805	0.2074632403357787	0.2074632403357787	-0.1158006771146843	-0.1735797839920113	0.09341139490667255	0.1106465720912823	0.02604843288050309	0.05601090202911323	-0.002525021566200096	-0.04851108168304744	-0.00311409511017193	0.02067172920678996	0.02037948002694399	0.08979387511408481	0.08979387511408478	0.02099342382778153	-0.001235022515864714	0.1226497347111532	0.03651178407616683	0.07176537057073415	-0.04702336123274478	-0.007133181026005088	-0.2230316733249972	0.1820183339624142	-0.05241988987708533	-0.00322808115017607	29.00596965454005	19.12673035463799	-4.974597767334602	-36.9892588086086	-456.7428038093036	-65.51738356989537	-26.29252949460673	0.5113850836202888	1.014358899249345	-0.05031649386173691	-0.9143607280190845	-0.05913794471961845	0.3959245387709655	0.4223573606112792	1.641122243993834	1.641122243993835	0.3785383045351489	0.0009424242155091009	2.233989997205022	0.6676466304762233	3.80392077278154e-09	9.452062289252332e-08	-4.191039573229787e-08	5.923473798908408e-09	8.842367530376005e-09	9.035503011707241e-08	1.218913617383959e-08
0.06	0.05890826831649987	0.1049133791399488	0.9059033604009648	0.1249279713566987	-0.3422956021617312	-0.2518245259532847	-0.2137683067401799	0.2084428130919789	0.2084428130919789	-0.1155720849534966	-0.1735925782967936	0.09474831000474572	0.1110446239918563	0.03107076991403895	0.06592924745929549	-0.003047020627461812	-0.05737224480527293	-0.003717566742012728	0.02449666757777656	0.02472226076677165	0.106039019141346	0.106039019141346	0.02470846860292652	-0.00132052224423782	0.1445887165219395	0.04306102112547133	0.07013626697727791	-0.049061602856988	-0.006704632207280173	-0.2189772687196068	0.1736897796993764	-0.04828040136339459	-0.002252430044694864	26.58641890368422	17.49990634046406	-4.426604805589759	-35.06102249710327	-456.6477507018516	-68.43553356941996	-26.29119362495795	0.4914773010380666	0.9696487472327308	-0.05484096068505745	-0.8528923149986869	-0.06398345624760257	0.3619155717269589	0.4491259346464869	1.615799608580175	1.615799608580175	0.3623839127245841	-0.02851785920967221	2.157080102769434	0.6407674640478828	4.630440605458513e-09	1.128176670919288e-07	-5.438310713480363e-08	6.612311603538743e-09	5.743349277546638e-09	1.111682961830225e-07	1.500972090539829e-08
0.07000000000000001	0.05924354858061289	0.1056205114448652	0.9058701847143021	0.1243116412861662	-0.3423356013747971	-0.251561231889071	-0.2134988576605309	0.2095824777987307	0.2095824777987307	-0.1153065966672953	-0.1736063328608057	0.09630055548780865	0.1115072495393894	0.03596906279586044	0.0754362799139066	-0.003591922948869876	-0.06584928195007683	-0.004278467833819163	0.02812558595790883	0.02917375013966274	0.1218084352329403	0.1218084352329404	0.02837276790197994	-0.001436968302030082	0.1657349384106078	0.04943398693373774	0.06903341229616948	-0.04588300113291521	-0.006409998945446152	-0.2159355308353725	0.1683234052438221	-0.04923474024996489	-0.001627798211890079	24.77469794688973	18.09619468876652	-4.367009833587701	-33.49804443395566	-456.6524294293508	-66.77155508647435	-26.28948957251939	0.486572316785369	0.9320917838746811	-0.05488469333751538	-0.8384362976574702	-0.05157446036774319	0.3579067379307164	0.4440896851055028	1.544686526905577	1.544686526905583	0.3659995997888285	-0.004205066779285511	2.074580619466782	0.6310345417732727	4.831868092635203e-09	1.115320809503958e-07	-5.582332860427859e-08	6.206544105671597e-09	3.881650453650807e-09	1.120850720291721e-07	1.504552984003905e-08
